# xmcd
#
# Track frame offsets: 
#        182
#        18952
#        29837
#        45245
#        57645
#        70157
#        84882
#        97922
#        112125
#        124667
#        139272
#        154535
#
# Disc length: 2205 seconds
#
# Revision: 0
# Processed by: cddbd v1.5.2PL0 Copyright (c) Steve Scherf et al.
# Submitted via: ExactAudioCopy v1.0b3
#
DISCID=9a089b0c
DTITLE=Lola Beltrán - Pedro Infante - Lo mejor de
DYEAR=1900
DGENRE=
TTITLE0=LB - Huapango Torero
TTITLE1=LB - La cama de piedra
TTITLE2=LB - Cucurrucucu paloma
TTITLE3=LB - Gritenme piedras del campo
TTITLE4=LB - Gorrioncillo pecho amarillo
TTITLE5=LB - Paloma negra
TTITLE6=PI - Las mañanitas
TTITLE7=PI - Carta a Eufemia
TTITLE8=PI - Yo, el aventurero
TTITLE9=PI - Que seas feliz
TTITLE10=PI - Vaya con Dios
TTITLE11=PI - Guitarras lloren guitarras
EXTD=
EXTT0=
EXTT1=
EXTT2=
EXTT3=
EXTT4=
EXTT5=
EXTT6=
EXTT7=
EXTT8=
EXTT9=
EXTT10=
EXTT11=
PLAYORDER=
